<svg width="173" height="33" viewBox="0 0 173 33" fill="none" xmlns="http://www.w3.org/2000/svg">
<g filter="url(#filter0_i_0_1134)">
<path d="M32.6444 27.885C32.6444 27.9704 32.623 28.0504 32.5804 28.125C32.5484 28.1997 32.479 28.237 32.3724 28.237H31.5564V31.549C31.183 31.677 30.815 31.821 30.4524 31.981C30.0897 32.1304 29.727 32.2904 29.3644 32.461C29.0017 32.6317 28.607 32.7384 28.1804 32.781C27.7644 32.8237 27.3537 32.845 26.9484 32.845C26.5964 32.845 26.2177 32.8077 25.8124 32.733C25.407 32.6584 25.0124 32.5517 24.6284 32.413C24.2444 32.2637 23.9084 32.0877 23.6204 31.885C22.8417 31.3197 22.271 30.5997 21.9084 29.725C21.5564 28.8504 21.3804 27.949 21.3804 27.021C21.3804 26.1784 21.5084 25.389 21.7644 24.653C22.031 23.917 22.4097 23.2717 22.9004 22.717C23.4017 22.1624 23.999 21.7304 24.6924 21.421C25.3964 21.101 26.1857 20.941 27.0604 20.941C27.7537 20.941 28.4364 21.0477 29.1084 21.261C29.2044 21.293 29.3484 21.3464 29.5404 21.421C29.743 21.4957 29.9404 21.5704 30.1324 21.645C30.335 21.709 30.4684 21.741 30.5324 21.741C30.6924 21.741 30.8044 21.6824 30.8684 21.565C30.9324 21.4477 30.991 21.3304 31.0444 21.213C31.1084 21.0957 31.199 21.037 31.3164 21.037C31.3804 21.037 31.439 21.053 31.4924 21.085C31.5564 21.117 31.5884 21.1704 31.5884 21.245C31.5884 21.7357 31.5937 22.221 31.6044 22.701C31.6257 23.181 31.6364 23.6664 31.6364 24.157C31.6364 24.3064 31.583 24.429 31.4764 24.525C31.3804 24.621 31.2577 24.669 31.1084 24.669C30.927 24.669 30.799 24.6317 30.7244 24.557C30.6604 24.4717 30.6017 24.349 30.5484 24.189C30.2817 23.3677 29.8657 22.7064 29.3004 22.205C28.7457 21.7037 28.0204 21.453 27.1244 21.453C26.6977 21.453 26.3084 21.5544 25.9564 21.757C25.6044 21.9597 25.295 22.2264 25.0284 22.557C24.7724 22.877 24.5537 23.229 24.3724 23.613C24.191 23.997 24.0524 24.3704 23.9564 24.733C23.8604 25.0957 23.791 25.469 23.7484 25.853C23.7057 26.237 23.6844 26.621 23.6844 27.005C23.6844 27.3784 23.7057 27.7517 23.7484 28.125C23.791 28.4984 23.8657 28.8664 23.9724 29.229C24.111 29.7197 24.319 30.189 24.5964 30.637C24.8737 31.085 25.2204 31.453 25.6364 31.741C26.063 32.029 26.5537 32.173 27.1084 32.173C27.311 32.173 27.5404 32.1464 27.7964 32.093C28.063 32.0397 28.3137 31.9597 28.5484 31.853C28.7937 31.7464 28.9964 31.6077 29.1564 31.437C29.3164 31.2557 29.3964 31.037 29.3964 30.781V28.669C29.3964 28.5837 29.3697 28.4984 29.3164 28.413C29.2737 28.3277 29.2044 28.285 29.1084 28.285C28.959 28.285 28.8044 28.2957 28.6444 28.317C28.495 28.3277 28.3457 28.333 28.1964 28.333C28.111 28.333 28.0364 28.285 27.9724 28.189C27.919 28.0824 27.8924 27.9917 27.8924 27.917C27.8924 27.8424 27.9244 27.7784 27.9884 27.725C28.0524 27.6717 28.1217 27.645 28.1964 27.645C28.3457 27.645 28.495 27.6504 28.6444 27.661C28.8044 27.661 28.959 27.661 29.1084 27.661C29.471 27.661 29.8284 27.661 30.1804 27.661C30.543 27.6504 30.9057 27.6397 31.2684 27.629C31.4604 27.6184 31.6524 27.6077 31.8444 27.597C32.0364 27.5757 32.2284 27.565 32.4204 27.565C32.5057 27.565 32.5644 27.6024 32.5964 27.677C32.6284 27.741 32.6444 27.8104 32.6444 27.885ZM40.3764 23.949C40.3764 23.1597 40.2004 22.5517 39.8484 22.125C39.507 21.6984 38.9257 21.485 38.1044 21.485H37.8164C37.731 21.485 37.6404 21.485 37.5444 21.485C37.4484 21.485 37.3577 21.4957 37.2724 21.517C37.1657 21.549 37.0964 21.597 37.0644 21.661C37.0324 21.725 37.0164 21.8157 37.0164 21.933C37.0164 22.5517 37.011 23.1704 37.0004 23.789C37.0004 24.397 37.0004 25.0157 37.0004 25.645V26.301C37.075 26.3117 37.1497 26.3224 37.2244 26.333C37.299 26.333 37.3737 26.333 37.4484 26.333C38.003 26.333 38.499 26.269 38.9364 26.141C39.3844 26.0024 39.7364 25.7624 39.9924 25.421C40.2484 25.069 40.3764 24.5784 40.3764 23.949ZM44.4404 32.525C44.4404 32.621 44.3497 32.6957 44.1684 32.749C43.9977 32.7917 43.7897 32.8184 43.5444 32.829C43.3097 32.8504 43.0857 32.861 42.8724 32.861C42.659 32.8717 42.515 32.877 42.4404 32.877C42.035 32.877 41.667 32.8344 41.3364 32.749C41.0164 32.6637 40.7444 32.4237 40.5204 32.029C40.0297 31.1757 39.5497 30.3117 39.0804 29.437C38.611 28.5517 38.1417 27.6717 37.6724 26.797L37.0004 26.781C37.0004 27.6237 37.0004 28.4717 37.0004 29.325C37.011 30.1677 37.0164 31.0157 37.0164 31.869C37.0164 31.965 37.043 32.061 37.0964 32.157C37.1497 32.2424 37.2297 32.285 37.3364 32.285C37.4644 32.285 37.5924 32.2797 37.7204 32.269C37.8484 32.2584 37.9764 32.253 38.1044 32.253C38.1577 32.253 38.2057 32.2904 38.2484 32.365C38.3017 32.429 38.3284 32.4877 38.3284 32.541C38.3284 32.6157 38.307 32.6797 38.2644 32.733C38.2324 32.7864 38.179 32.813 38.1044 32.813C38.0084 32.813 37.9177 32.8077 37.8324 32.797C37.747 32.7864 37.6617 32.781 37.5764 32.781C37.3844 32.7597 37.1924 32.749 37.0004 32.749C36.8084 32.749 36.6164 32.749 36.4244 32.749C35.9657 32.749 35.5017 32.7597 35.0324 32.781C34.5737 32.8024 34.1097 32.813 33.6404 32.813C33.459 32.813 33.3684 32.717 33.3684 32.525C33.3684 32.4504 33.4004 32.3917 33.4644 32.349C33.5284 32.2957 33.5977 32.269 33.6724 32.269C33.779 32.269 33.8857 32.2744 33.9924 32.285C34.099 32.2957 34.2057 32.301 34.3124 32.301C34.4617 32.301 34.5897 32.2744 34.6964 32.221C34.803 32.1677 34.8564 32.0557 34.8564 31.885V21.997C34.8564 21.837 34.8244 21.7304 34.7604 21.677C34.6964 21.613 34.5897 21.581 34.4404 21.581C34.3337 21.581 34.227 21.5864 34.1204 21.597C34.0137 21.6077 33.907 21.613 33.8004 21.613C33.7257 21.613 33.6457 21.5864 33.5604 21.533C33.4857 21.4797 33.4484 21.4104 33.4484 21.325C33.4484 21.1224 33.5657 21.021 33.8004 21.021C33.907 21.021 34.0137 21.0264 34.1204 21.037C34.227 21.037 34.3337 21.0424 34.4404 21.053C34.6537 21.0637 34.8724 21.0744 35.0964 21.085C35.3204 21.085 35.539 21.085 35.7524 21.085C36.2644 21.085 36.771 21.069 37.2724 21.037C37.7844 20.9944 38.291 20.973 38.7924 20.973C39.2297 20.973 39.6777 21.0157 40.1364 21.101C40.595 21.1757 41.0217 21.3144 41.4164 21.517C41.8217 21.7197 42.147 21.997 42.3924 22.349C42.6377 22.6904 42.7604 23.1277 42.7604 23.661C42.7604 24.3117 42.627 24.8344 42.3604 25.229C42.1044 25.6237 41.747 25.9277 41.2884 26.141C40.8404 26.3544 40.3284 26.5197 39.7524 26.637C40.2217 27.4904 40.7284 28.3277 41.2724 29.149C41.8164 29.9704 42.3657 30.781 42.9204 31.581C43.0697 31.7837 43.2617 31.965 43.4964 32.125C43.731 32.2744 43.971 32.349 44.2164 32.349C44.291 32.349 44.3444 32.3597 44.3764 32.381C44.419 32.3917 44.4404 32.4397 44.4404 32.525ZM51.7049 27.997C51.4062 27.0904 51.0969 26.189 50.7769 25.293C50.4675 24.397 50.1689 23.4957 49.8809 22.589C49.5715 23.4957 49.2622 24.397 48.9529 25.293C48.6542 26.189 48.3502 27.0904 48.0409 27.997H51.7049ZM56.5049 32.589C56.5049 32.749 56.4035 32.829 56.2009 32.829C56.1369 32.829 56.0729 32.829 56.0089 32.829C55.9449 32.829 55.8755 32.8237 55.8009 32.813C55.5342 32.7917 55.2569 32.781 54.9689 32.781C54.6915 32.781 54.4142 32.781 54.1369 32.781C53.7849 32.781 53.4329 32.781 53.0809 32.781C52.7289 32.781 52.3715 32.7917 52.0089 32.813C51.9662 32.8237 51.9235 32.829 51.8809 32.829C51.8382 32.829 51.7955 32.829 51.7529 32.829C51.6035 32.829 51.5289 32.7544 51.5289 32.605C51.5289 32.477 51.5715 32.4024 51.6569 32.381C51.7529 32.349 51.8595 32.3384 51.9769 32.349C52.0942 32.3597 52.1902 32.365 52.2649 32.365C52.4569 32.365 52.5955 32.3277 52.6809 32.253C52.7769 32.1677 52.8249 32.0237 52.8249 31.821C52.8249 31.7037 52.7875 31.501 52.7129 31.213C52.6382 30.9144 52.5475 30.589 52.4409 30.237C52.3342 29.885 52.2275 29.5597 52.1209 29.261C52.0249 28.9517 51.9555 28.733 51.9129 28.605H47.8329C47.8115 28.669 47.7635 28.813 47.6889 29.037C47.6142 29.261 47.5235 29.5224 47.4169 29.821C47.3209 30.1197 47.2249 30.413 47.1289 30.701C47.0329 30.989 46.9529 31.2397 46.8889 31.453C46.8249 31.6557 46.7929 31.7784 46.7929 31.821C46.7929 32.0237 46.8462 32.1624 46.9529 32.237C47.0595 32.3117 47.1929 32.3544 47.3529 32.365C47.5129 32.365 47.6675 32.365 47.8169 32.365C47.8702 32.365 47.9129 32.4024 47.9449 32.477C47.9769 32.541 47.9929 32.5997 47.9929 32.653C47.9929 32.717 47.9662 32.765 47.9129 32.797C47.8702 32.829 47.8222 32.845 47.7689 32.845C47.4169 32.845 47.0649 32.8344 46.7129 32.813C46.3715 32.8024 46.0302 32.797 45.6889 32.797C45.5182 32.797 45.3475 32.8024 45.1769 32.813C45.0062 32.8237 44.8302 32.829 44.6489 32.829C44.5955 32.829 44.5422 32.8077 44.4889 32.765C44.4355 32.7224 44.4089 32.6744 44.4089 32.621C44.4089 32.5037 44.4515 32.429 44.5369 32.397C44.6222 32.365 44.7182 32.3544 44.8249 32.365C44.9422 32.365 45.0382 32.365 45.1129 32.365C45.2515 32.365 45.3635 32.3117 45.4489 32.205C45.5449 32.0877 45.6142 31.9757 45.6569 31.869C46.2862 30.2904 46.8835 28.7064 47.4489 27.117C48.0142 25.517 48.5635 23.9117 49.0969 22.301C49.1395 22.1837 49.1929 22.0184 49.2569 21.805C49.3209 21.5917 49.3529 21.4317 49.3529 21.325C49.3529 21.261 49.3369 21.2077 49.3049 21.165C49.2835 21.1117 49.2729 21.0637 49.2729 21.021C49.2729 20.9784 49.3262 20.9464 49.4329 20.925C49.5395 20.9037 49.6515 20.8877 49.7689 20.877C49.8862 20.8664 49.9609 20.861 49.9929 20.861C50.2169 20.829 50.4355 20.797 50.6489 20.765C50.8729 20.733 51.0969 20.7064 51.3209 20.685L55.2409 31.741C55.3262 31.997 55.4382 32.1624 55.5769 32.237C55.7262 32.301 55.9235 32.333 56.1689 32.333C56.2649 32.333 56.3449 32.349 56.4089 32.381C56.4729 32.4024 56.5049 32.4717 56.5049 32.589ZM69.5675 21.309C69.5675 21.3837 69.5462 21.453 69.5035 21.517C69.4608 21.581 69.3968 21.613 69.3115 21.613C69.1728 21.613 69.0342 21.6077 68.8955 21.597C68.7675 21.5864 68.6288 21.581 68.4795 21.581C68.3728 21.581 68.3035 21.629 68.2715 21.725C68.2395 21.821 68.2235 21.9117 68.2235 21.997C68.2235 22.6797 68.2182 23.3624 68.2075 24.045C68.2075 24.717 68.2075 25.3997 68.2075 26.093C68.2075 27.0637 68.2075 28.0344 68.2075 29.005C68.2182 29.965 68.2235 30.9304 68.2235 31.901C68.2235 31.9864 68.2395 32.077 68.2715 32.173C68.3035 32.269 68.3728 32.317 68.4795 32.317C68.6288 32.317 68.7675 32.3117 68.8955 32.301C69.0342 32.2904 69.1728 32.285 69.3115 32.285C69.3968 32.285 69.4555 32.3224 69.4875 32.397C69.5195 32.4717 69.5355 32.5464 69.5355 32.621C69.5355 32.781 69.4502 32.861 69.2795 32.861C69.1942 32.861 69.1088 32.8557 69.0235 32.845C68.9382 32.8344 68.8528 32.829 68.7675 32.829C68.6075 32.8077 68.4475 32.797 68.2875 32.797C68.1275 32.797 67.9675 32.797 67.8075 32.797C67.4342 32.797 67.0608 32.797 66.6875 32.797C66.3248 32.797 65.9568 32.8077 65.5835 32.829C65.4768 32.829 65.3648 32.8344 65.2475 32.845C65.1408 32.8557 65.0288 32.861 64.9115 32.861C64.8048 32.861 64.7302 32.829 64.6875 32.765C64.6555 32.701 64.6395 32.6264 64.6395 32.541C64.6395 32.4557 64.6715 32.3917 64.7355 32.349C64.7995 32.3064 64.8688 32.285 64.9435 32.285C65.0608 32.285 65.1675 32.2904 65.2635 32.301C65.3702 32.3117 65.4768 32.317 65.5835 32.317C65.7435 32.317 65.8502 32.2904 65.9035 32.237C65.9675 32.173 65.9995 32.061 65.9995 31.901V26.925H60.7355V31.933C60.7355 32.093 60.7675 32.205 60.8315 32.269C60.8955 32.3224 61.0022 32.349 61.1515 32.349C61.2582 32.349 61.3648 32.3437 61.4715 32.333C61.5782 32.3224 61.6848 32.317 61.7915 32.317C61.8768 32.317 61.9515 32.3384 62.0155 32.381C62.0795 32.413 62.1115 32.477 62.1115 32.573C62.1115 32.7757 62.0155 32.877 61.8235 32.877C61.4288 32.877 61.0342 32.861 60.6395 32.829C60.2555 32.8077 59.8715 32.797 59.4875 32.797C59.2955 32.797 59.0982 32.797 58.8955 32.797C58.7035 32.797 58.5115 32.8024 58.3195 32.813C58.1808 32.8237 58.0422 32.8344 57.9035 32.845C57.7755 32.8664 57.6422 32.877 57.5035 32.877C57.4288 32.877 57.3702 32.8397 57.3275 32.765C57.2955 32.701 57.2795 32.6424 57.2795 32.589C57.2795 32.5357 57.3008 32.477 57.3435 32.413C57.3862 32.349 57.4395 32.317 57.5035 32.317C57.6422 32.317 57.7755 32.3224 57.9035 32.333C58.0422 32.3437 58.1808 32.349 58.3195 32.349C58.4368 32.349 58.5115 32.301 58.5435 32.205C58.5755 32.109 58.5915 32.0184 58.5915 31.933C58.5915 30.877 58.5915 29.821 58.5915 28.765C58.5915 27.709 58.5915 26.653 58.5915 25.597C58.5915 24.9997 58.5915 24.4024 58.5915 23.805C58.5915 23.197 58.5915 22.5997 58.5915 22.013C58.5915 21.9277 58.5755 21.837 58.5435 21.741C58.5115 21.645 58.4368 21.597 58.3195 21.597C58.1808 21.597 58.0422 21.6024 57.9035 21.613C57.7755 21.6237 57.6422 21.629 57.5035 21.629C57.3328 21.629 57.2475 21.533 57.2475 21.341C57.2475 21.2664 57.2688 21.197 57.3115 21.133C57.3542 21.069 57.4182 21.037 57.5035 21.037C57.7808 21.037 58.0528 21.0477 58.3195 21.069C58.5968 21.0904 58.8742 21.101 59.1515 21.101C59.5888 21.101 60.0262 21.0904 60.4635 21.069C60.9115 21.0477 61.3542 21.037 61.7915 21.037C61.9942 21.037 62.0955 21.1384 62.0955 21.341C62.0955 21.4797 62.0368 21.5597 61.9195 21.581C61.8128 21.6024 61.7115 21.613 61.6155 21.613C61.5408 21.613 61.4662 21.613 61.3915 21.613C61.3168 21.6024 61.2368 21.597 61.1515 21.597C61.0128 21.597 60.9062 21.6397 60.8315 21.725C60.7675 21.8104 60.7355 21.9224 60.7355 22.061V26.397H65.9995V21.997C65.9995 21.837 65.9675 21.7304 65.9035 21.677C65.8502 21.613 65.7435 21.581 65.5835 21.581C65.4768 21.581 65.3702 21.5864 65.2635 21.597C65.1675 21.6077 65.0608 21.613 64.9435 21.613C64.8795 21.613 64.8102 21.5864 64.7355 21.533C64.6715 21.4797 64.6395 21.4157 64.6395 21.341C64.6395 21.1384 64.7408 21.037 64.9435 21.037C65.0715 21.037 65.1995 21.0424 65.3275 21.053C65.4555 21.0637 65.5835 21.0744 65.7115 21.085C65.9568 21.0957 66.2022 21.1064 66.4475 21.117C66.6928 21.117 66.9382 21.117 67.1835 21.117C67.5355 21.117 67.8875 21.1064 68.2395 21.085C68.6022 21.053 68.9595 21.037 69.3115 21.037C69.3968 21.037 69.4608 21.0637 69.5035 21.117C69.5462 21.1704 69.5675 21.2344 69.5675 21.309ZM77.4861 27.997C77.1875 27.0904 76.8781 26.189 76.5581 25.293C76.2488 24.397 75.9501 23.4957 75.6621 22.589C75.3528 23.4957 75.0435 24.397 74.7341 25.293C74.4355 26.189 74.1315 27.0904 73.8221 27.997H77.4861ZM82.2861 32.589C82.2861 32.749 82.1848 32.829 81.9821 32.829C81.9181 32.829 81.8541 32.829 81.7901 32.829C81.7261 32.829 81.6568 32.8237 81.5821 32.813C81.3155 32.7917 81.0381 32.781 80.7501 32.781C80.4728 32.781 80.1955 32.781 79.9181 32.781C79.5661 32.781 79.2141 32.781 78.8621 32.781C78.5101 32.781 78.1528 32.7917 77.7901 32.813C77.7475 32.8237 77.7048 32.829 77.6621 32.829C77.6195 32.829 77.5768 32.829 77.5341 32.829C77.3848 32.829 77.3101 32.7544 77.3101 32.605C77.3101 32.477 77.3528 32.4024 77.4381 32.381C77.5341 32.349 77.6408 32.3384 77.7581 32.349C77.8755 32.3597 77.9715 32.365 78.0461 32.365C78.2381 32.365 78.3768 32.3277 78.4621 32.253C78.5581 32.1677 78.6061 32.0237 78.6061 31.821C78.6061 31.7037 78.5688 31.501 78.4941 31.213C78.4195 30.9144 78.3288 30.589 78.2221 30.237C78.1155 29.885 78.0088 29.5597 77.9021 29.261C77.8061 28.9517 77.7368 28.733 77.6941 28.605H73.6141C73.5928 28.669 73.5448 28.813 73.4701 29.037C73.3955 29.261 73.3048 29.5224 73.1981 29.821C73.1021 30.1197 73.0061 30.413 72.9101 30.701C72.8141 30.989 72.7341 31.2397 72.6701 31.453C72.6061 31.6557 72.5741 31.7784 72.5741 31.821C72.5741 32.0237 72.6275 32.1624 72.7341 32.237C72.8408 32.3117 72.9741 32.3544 73.1341 32.365C73.2941 32.365 73.4488 32.365 73.5981 32.365C73.6515 32.365 73.6941 32.4024 73.7261 32.477C73.7581 32.541 73.7741 32.5997 73.7741 32.653C73.7741 32.717 73.7475 32.765 73.6941 32.797C73.6515 32.829 73.6035 32.845 73.5501 32.845C73.1981 32.845 72.8461 32.8344 72.4941 32.813C72.1528 32.8024 71.8115 32.797 71.4701 32.797C71.2995 32.797 71.1288 32.8024 70.9581 32.813C70.7875 32.8237 70.6115 32.829 70.4301 32.829C70.3768 32.829 70.3235 32.8077 70.2701 32.765C70.2168 32.7224 70.1901 32.6744 70.1901 32.621C70.1901 32.5037 70.2328 32.429 70.3181 32.397C70.4035 32.365 70.4995 32.3544 70.6061 32.365C70.7235 32.365 70.8195 32.365 70.8941 32.365C71.0328 32.365 71.1448 32.3117 71.2301 32.205C71.3261 32.0877 71.3955 31.9757 71.4381 31.869C72.0675 30.2904 72.6648 28.7064 73.2301 27.117C73.7955 25.517 74.3448 23.9117 74.8781 22.301C74.9208 22.1837 74.9741 22.0184 75.0381 21.805C75.1021 21.5917 75.1341 21.4317 75.1341 21.325C75.1341 21.261 75.1181 21.2077 75.0861 21.165C75.0648 21.1117 75.0541 21.0637 75.0541 21.021C75.0541 20.9784 75.1075 20.9464 75.2141 20.925C75.3208 20.9037 75.4328 20.8877 75.5501 20.877C75.6675 20.8664 75.7421 20.861 75.7741 20.861C75.9981 20.829 76.2168 20.797 76.4301 20.765C76.6541 20.733 76.8781 20.7064 77.1021 20.685L81.0221 31.741C81.1075 31.997 81.2195 32.1624 81.3581 32.237C81.5075 32.301 81.7048 32.333 81.9501 32.333C82.0461 32.333 82.1261 32.349 82.1901 32.381C82.2541 32.4024 82.2861 32.4717 82.2861 32.589ZM94.5168 29.533C94.5168 29.1064 94.4688 28.685 94.3728 28.269C94.2874 27.8424 94.1114 27.485 93.8448 27.197C93.5888 26.909 93.1941 26.765 92.6608 26.765C92.2981 26.765 91.9354 26.7757 91.5728 26.797C91.2208 26.8077 90.8634 26.813 90.5008 26.813V31.821C90.5008 32.1197 90.5754 32.2957 90.7248 32.349C90.8848 32.4024 91.0821 32.429 91.3168 32.429C91.4448 32.429 91.5728 32.429 91.7008 32.429C91.8394 32.429 91.9728 32.4237 92.1008 32.413C92.6341 32.381 93.0768 32.2317 93.4288 31.965C93.7914 31.6984 94.0634 31.3517 94.2448 30.925C94.4261 30.4984 94.5168 30.0344 94.5168 29.533ZM93.7168 23.821C93.7168 23.1917 93.6208 22.717 93.4288 22.397C93.2474 22.0664 92.9648 21.8477 92.5808 21.741C92.1968 21.6237 91.7168 21.565 91.1408 21.565C91.0341 21.565 90.9274 21.5704 90.8208 21.581C90.7141 21.581 90.6074 21.5864 90.5008 21.597V26.333H90.9648C91.1781 26.333 91.4128 26.3277 91.6688 26.317C91.9248 26.2957 92.1701 26.2477 92.4048 26.173C92.6501 26.0984 92.8528 25.981 93.0128 25.821C93.2581 25.5757 93.4341 25.2664 93.5408 24.893C93.6581 24.5197 93.7168 24.1624 93.7168 23.821ZM96.8048 29.261C96.8048 29.9864 96.6341 30.6317 96.2928 31.197C95.9621 31.7517 95.4554 32.173 94.7728 32.461C94.3888 32.6317 93.9568 32.7384 93.4768 32.781C93.0074 32.8344 92.5648 32.861 92.1488 32.861C92.0528 32.861 91.9568 32.861 91.8608 32.861C91.7648 32.861 91.6688 32.8557 91.5728 32.845C90.7941 32.813 90.0101 32.797 89.2208 32.797C88.9221 32.797 88.6234 32.8077 88.3248 32.829C88.0261 32.861 87.7221 32.877 87.4128 32.877C87.3701 32.877 87.3328 32.8557 87.3008 32.813C87.2688 32.781 87.2528 32.7437 87.2528 32.701C87.2528 32.573 87.3008 32.4984 87.3968 32.477C87.5034 32.445 87.6261 32.4184 87.7648 32.397C87.9034 32.3757 88.0314 32.3117 88.1488 32.205C88.2661 32.0984 88.3354 31.8957 88.3568 31.597C88.3674 31.469 88.3728 31.341 88.3728 31.213C88.3728 31.085 88.3728 30.957 88.3728 30.829C88.3728 29.4744 88.3674 28.125 88.3568 26.781C88.3568 25.4264 88.3568 24.0717 88.3568 22.717C88.3568 22.2477 88.2768 21.9597 88.1168 21.853C87.9568 21.7464 87.6581 21.693 87.2208 21.693C87.1461 21.693 87.0768 21.6664 87.0128 21.613C86.9594 21.5597 86.9328 21.4957 86.9328 21.421C86.9328 21.2184 87.0448 21.117 87.2688 21.117C87.4821 21.117 87.7008 21.1277 87.9248 21.149C88.1488 21.1704 88.3674 21.181 88.5807 21.181C89.1248 21.181 89.6688 21.165 90.2128 21.133C90.7568 21.0904 91.3008 21.0477 91.8448 21.005C91.9514 20.9944 92.0528 20.989 92.1488 20.989C92.2554 20.9784 92.3568 20.973 92.4528 20.973C93.0608 20.973 93.6314 21.0477 94.1648 21.197C94.7088 21.3357 95.1461 21.597 95.4768 21.981C95.8181 22.365 95.9888 22.9197 95.9888 23.645C95.9888 24.061 95.8768 24.4557 95.6528 24.829C95.4394 25.2024 95.1674 25.5117 94.8368 25.757C94.7301 25.853 94.6128 25.9384 94.4848 26.013C94.3568 26.077 94.2234 26.141 94.0848 26.205C94.0634 26.2157 94.0208 26.237 93.9568 26.269C93.9034 26.2904 93.8768 26.3224 93.8768 26.365C93.8768 26.397 93.9034 26.4237 93.9568 26.445C94.0208 26.4557 94.0634 26.4664 94.0848 26.477C94.2554 26.5197 94.4208 26.5677 94.5808 26.621C94.7408 26.6637 94.9008 26.7277 95.0608 26.813C95.5514 27.0477 95.9621 27.373 96.2928 27.789C96.6341 28.205 96.8048 28.6957 96.8048 29.261ZM109.466 21.309C109.466 21.3837 109.439 21.4584 109.386 21.533C109.343 21.597 109.279 21.629 109.194 21.629C109.055 21.629 108.917 21.629 108.778 21.629C108.639 21.6184 108.501 21.613 108.362 21.613C108.223 21.613 108.138 21.6824 108.106 21.821C108.074 21.949 108.058 22.0664 108.058 22.173C108.058 22.2264 108.058 22.285 108.058 22.349C108.069 22.4024 108.074 22.4557 108.074 22.509C108.074 23.4797 108.074 24.445 108.074 25.405C108.085 26.365 108.09 27.325 108.09 28.285C108.09 29.693 107.743 30.8077 107.05 31.629C106.357 32.4397 105.279 32.845 103.818 32.845C102.378 32.845 101.258 32.4984 100.458 31.805C99.6581 31.1117 99.2581 30.0184 99.2581 28.525V27.805C99.2581 26.8877 99.2581 25.9704 99.2581 25.053C99.2688 24.125 99.2741 23.197 99.2741 22.269C99.2741 22.173 99.2635 22.045 99.2421 21.885C99.2208 21.7144 99.1461 21.6237 99.0181 21.613C98.8795 21.6024 98.7355 21.6024 98.5861 21.613C98.4475 21.6237 98.3088 21.629 98.1701 21.629C98.0955 21.629 98.0261 21.6024 97.9621 21.549C97.8981 21.485 97.8661 21.4157 97.8661 21.341C97.8661 21.2557 97.8928 21.181 97.9461 21.117C98.0101 21.053 98.0848 21.021 98.1701 21.021C98.2981 21.021 98.4208 21.0264 98.5381 21.037C98.6661 21.0477 98.7888 21.0584 98.9061 21.069C99.1515 21.0797 99.3968 21.0904 99.6421 21.101C99.8875 21.101 100.127 21.101 100.362 21.101C100.607 21.101 100.842 21.101 101.066 21.101C101.301 21.101 101.535 21.0957 101.77 21.085C101.919 21.0744 102.063 21.0637 102.202 21.053C102.351 21.0317 102.495 21.021 102.634 21.021C102.719 21.021 102.783 21.053 102.826 21.117C102.879 21.181 102.906 21.2557 102.906 21.341C102.906 21.4157 102.879 21.485 102.826 21.549C102.783 21.6024 102.719 21.629 102.634 21.629C102.495 21.629 102.357 21.6237 102.218 21.613C102.09 21.6024 101.957 21.597 101.818 21.597C101.711 21.597 101.642 21.645 101.61 21.741C101.578 21.8264 101.557 21.9117 101.546 21.997C101.535 22.1677 101.53 22.3384 101.53 22.509C101.541 22.6797 101.546 22.8504 101.546 23.021C101.546 23.981 101.535 24.941 101.514 25.901C101.503 26.8504 101.498 27.805 101.498 28.765C101.498 29.2237 101.514 29.661 101.546 30.077C101.589 30.4824 101.685 30.845 101.834 31.165C101.983 31.485 102.218 31.7357 102.538 31.917C102.869 32.0984 103.322 32.189 103.898 32.189C104.666 32.189 105.279 32.013 105.738 31.661C106.197 31.2984 106.527 30.829 106.73 30.253C106.933 29.6664 107.034 29.0317 107.034 28.349C107.034 27.293 107.013 26.237 106.97 25.181C106.927 24.125 106.906 23.069 106.906 22.013C106.906 21.853 106.869 21.7464 106.794 21.693C106.719 21.629 106.607 21.597 106.458 21.597C106.351 21.597 106.245 21.6024 106.138 21.613C106.042 21.6237 105.935 21.629 105.818 21.629C105.743 21.629 105.674 21.6024 105.61 21.549C105.546 21.4957 105.514 21.4264 105.514 21.341C105.514 21.2557 105.541 21.181 105.594 21.117C105.658 21.053 105.733 21.021 105.818 21.021C105.989 21.021 106.154 21.0317 106.314 21.053C106.474 21.0637 106.639 21.0744 106.81 21.085C106.917 21.0957 107.023 21.101 107.13 21.101C107.237 21.101 107.343 21.101 107.45 21.101C107.567 21.101 107.685 21.101 107.802 21.101C107.93 21.101 108.053 21.0957 108.17 21.085C108.341 21.085 108.506 21.0744 108.666 21.053C108.837 21.0317 109.007 21.021 109.178 21.021C109.37 21.021 109.466 21.117 109.466 21.309ZM115.192 21.341C115.192 21.5224 115.107 21.613 114.936 21.613C114.808 21.613 114.675 21.613 114.536 21.613C114.408 21.6024 114.28 21.597 114.152 21.597C114.045 21.597 113.971 21.645 113.928 21.741C113.885 21.8264 113.864 21.917 113.864 22.013C113.864 22.3864 113.859 22.765 113.848 23.149C113.848 23.5224 113.848 23.8957 113.848 24.269C113.848 25.4424 113.848 26.621 113.848 27.805C113.859 28.9784 113.864 30.1517 113.864 31.325C113.864 31.3997 113.859 31.517 113.848 31.677C113.837 31.837 113.848 31.9864 113.88 32.125C113.923 32.253 114.003 32.317 114.12 32.317C114.259 32.317 114.397 32.3117 114.536 32.301C114.675 32.2904 114.813 32.285 114.952 32.285C115.027 32.285 115.08 32.317 115.112 32.381C115.144 32.4344 115.16 32.4984 115.16 32.573C115.16 32.6477 115.133 32.7117 115.08 32.765C115.037 32.829 114.973 32.861 114.888 32.861C114.525 32.861 114.163 32.8557 113.8 32.845C113.448 32.8344 113.091 32.829 112.728 32.829C112.365 32.829 112.003 32.8344 111.64 32.845C111.277 32.8557 110.915 32.861 110.552 32.861C110.445 32.861 110.376 32.8397 110.344 32.797C110.312 32.7544 110.296 32.685 110.296 32.589C110.296 32.5037 110.312 32.4344 110.344 32.381C110.387 32.317 110.451 32.285 110.536 32.285C110.653 32.285 110.771 32.2904 110.888 32.301C111.005 32.3117 111.117 32.317 111.224 32.317C111.373 32.317 111.475 32.269 111.528 32.173C111.581 32.077 111.613 31.965 111.624 31.837C111.635 31.6984 111.64 31.581 111.64 31.485L111.656 22.301C111.656 22.205 111.645 22.0664 111.624 21.885C111.603 21.693 111.528 21.5917 111.4 21.581C111.368 21.581 111.336 21.581 111.304 21.581C111.283 21.581 111.256 21.581 111.224 21.581C111.117 21.581 111.011 21.5864 110.904 21.597C110.808 21.6077 110.707 21.613 110.6 21.613C110.397 21.613 110.296 21.5117 110.296 21.309C110.296 21.2344 110.317 21.1704 110.36 21.117C110.413 21.0637 110.477 21.037 110.552 21.037C111.011 21.037 111.464 21.0477 111.912 21.069C112.371 21.0904 112.829 21.101 113.288 21.101C113.565 21.101 113.843 21.0904 114.12 21.069C114.408 21.0477 114.691 21.037 114.968 21.037C115.053 21.037 115.112 21.069 115.144 21.133C115.176 21.197 115.192 21.2664 115.192 21.341ZM126.729 29.069C126.729 29.2397 126.719 29.4104 126.697 29.581C126.676 29.7517 126.655 29.9277 126.633 30.109C126.591 30.4824 126.543 30.8557 126.489 31.229C126.436 31.6024 126.393 31.9757 126.361 32.349C126.361 32.4557 126.34 32.5464 126.297 32.621C126.244 32.6957 126.164 32.7384 126.057 32.749C125.951 32.7704 125.855 32.781 125.769 32.781C125.641 32.781 125.513 32.7757 125.385 32.765C125.257 32.765 125.124 32.765 124.985 32.765C124.313 32.7544 123.641 32.749 122.969 32.749C122.297 32.749 121.625 32.749 120.953 32.749H119.129C118.895 32.749 118.66 32.749 118.425 32.749C118.201 32.749 117.972 32.7544 117.737 32.765C117.62 32.7757 117.503 32.781 117.385 32.781C117.268 32.7917 117.151 32.797 117.033 32.797C116.937 32.797 116.852 32.7704 116.777 32.717C116.713 32.6637 116.681 32.589 116.681 32.493C116.681 32.3864 116.713 32.3064 116.777 32.253C116.852 32.1997 116.932 32.173 117.017 32.173C117.103 32.173 117.188 32.1784 117.273 32.189C117.369 32.1997 117.46 32.205 117.545 32.205C117.716 32.205 117.849 32.1837 117.945 32.141C118.041 32.0877 118.089 31.965 118.089 31.773C118.089 30.1197 118.089 28.4664 118.089 26.813C118.089 25.149 118.084 23.4957 118.073 21.853C118.073 21.725 118.047 21.645 117.993 21.613C117.951 21.5704 117.871 21.549 117.753 21.549C117.636 21.549 117.513 21.5544 117.385 21.565C117.268 21.5757 117.145 21.581 117.017 21.581C116.943 21.581 116.873 21.5544 116.809 21.501C116.745 21.4477 116.713 21.3784 116.713 21.293C116.713 21.0904 116.82 20.989 117.033 20.989C117.151 20.989 117.273 20.9944 117.401 21.005C117.529 21.0157 117.657 21.0264 117.785 21.037C118.041 21.0477 118.292 21.0584 118.537 21.069C118.793 21.069 119.049 21.069 119.305 21.069C119.519 21.069 119.727 21.069 119.929 21.069C120.143 21.069 120.351 21.0637 120.553 21.053C120.703 21.0424 120.847 21.0317 120.985 21.021C121.124 20.9997 121.263 20.989 121.401 20.989C121.572 20.989 121.657 21.0797 121.657 21.261C121.657 21.3357 121.636 21.4104 121.593 21.485C121.551 21.549 121.487 21.581 121.401 21.581C121.263 21.581 121.124 21.5757 120.985 21.565C120.857 21.5544 120.719 21.549 120.569 21.549C120.452 21.549 120.377 21.581 120.345 21.645C120.324 21.6984 120.313 21.7784 120.313 21.885C120.313 22.2797 120.308 22.669 120.297 23.053C120.297 23.437 120.297 23.8264 120.297 24.221C120.297 25.4584 120.297 26.701 120.297 27.949C120.308 29.197 120.313 30.4397 120.313 31.677C120.313 31.7837 120.34 31.885 120.393 31.981C120.447 32.077 120.527 32.141 120.633 32.173C120.772 32.205 120.916 32.221 121.065 32.221C121.215 32.221 121.359 32.221 121.497 32.221C122.297 32.221 122.991 32.141 123.577 31.981C124.164 31.821 124.66 31.5277 125.065 31.101C125.481 30.6637 125.823 30.0344 126.089 29.213C126.121 29.117 126.164 29.0317 126.217 28.957C126.271 28.8717 126.351 28.829 126.457 28.829C126.521 28.829 126.58 28.8504 126.633 28.893C126.697 28.9357 126.729 28.9944 126.729 29.069ZM137.128 26.765C137.128 26.157 137.059 25.549 136.92 24.941C136.792 24.333 136.579 23.7784 136.28 23.277C135.981 22.7757 135.587 22.3757 135.096 22.077C134.605 21.7677 134.003 21.613 133.288 21.613C132.563 21.613 131.848 21.629 131.144 21.661V31.453C131.144 31.7304 131.187 31.9277 131.272 32.045C131.357 32.1624 131.549 32.221 131.848 32.221C132.211 32.221 132.589 32.205 132.984 32.173C133.389 32.141 133.779 32.0717 134.152 31.965C134.536 31.8477 134.872 31.677 135.16 31.453C135.853 30.8877 136.355 30.1837 136.664 29.341C136.973 28.4984 137.128 27.6397 137.128 26.765ZM139.448 26.541C139.448 27.2237 139.347 27.8957 139.144 28.557C138.941 29.2184 138.643 29.8317 138.248 30.397C137.864 30.9517 137.384 31.421 136.808 31.805C136.435 32.0504 135.997 32.253 135.496 32.413C134.995 32.5624 134.483 32.669 133.96 32.733C133.448 32.797 132.968 32.829 132.52 32.829C132.147 32.829 131.773 32.813 131.4 32.781C131.037 32.7597 130.669 32.749 130.296 32.749C130.029 32.749 129.757 32.749 129.48 32.749C129.213 32.7597 128.941 32.7757 128.664 32.797C128.557 32.8077 128.456 32.813 128.36 32.813C128.264 32.8237 128.168 32.829 128.072 32.829C127.88 32.829 127.784 32.7437 127.784 32.573C127.784 32.4664 127.832 32.397 127.928 32.365C128.024 32.333 128.131 32.3117 128.248 32.301C128.365 32.2797 128.456 32.2584 128.52 32.237C128.701 32.1517 128.819 32.0184 128.872 31.837C128.925 31.6557 128.952 31.4797 128.952 31.309C128.952 30.3384 128.952 29.373 128.952 28.413C128.952 27.453 128.952 26.493 128.952 25.533C128.952 24.9784 128.952 24.429 128.952 23.885C128.963 23.3304 128.952 22.781 128.92 22.237C128.92 22.2157 128.915 22.173 128.904 22.109C128.904 22.0344 128.904 21.9917 128.904 21.981C128.872 21.853 128.787 21.7677 128.648 21.725C128.509 21.6824 128.36 21.6664 128.2 21.677C128.04 21.677 127.907 21.677 127.8 21.677C127.715 21.677 127.635 21.661 127.56 21.629C127.485 21.5864 127.448 21.5117 127.448 21.405C127.448 21.2024 127.549 21.101 127.752 21.101C128.019 21.101 128.28 21.1117 128.536 21.133C128.803 21.1437 129.069 21.149 129.336 21.149C130.093 21.149 130.851 21.1224 131.608 21.069C132.376 21.005 133.139 20.973 133.896 20.973C135.048 20.973 136.04 21.197 136.872 21.645C137.704 22.093 138.339 22.733 138.776 23.565C139.224 24.397 139.448 25.389 139.448 26.541ZM150.509 29.997C150.509 30.1677 150.487 30.3437 150.445 30.525C150.413 30.6957 150.386 30.8717 150.365 31.053C150.343 31.2557 150.317 31.4637 150.285 31.677C150.263 31.8904 150.242 32.1037 150.221 32.317C150.189 32.4877 150.141 32.605 150.077 32.669C150.013 32.7224 149.89 32.749 149.709 32.749C148.621 32.749 147.533 32.7437 146.445 32.733C145.357 32.7117 144.269 32.701 143.181 32.701C142.807 32.701 142.434 32.717 142.061 32.749C141.687 32.7917 141.314 32.813 140.941 32.813C140.759 32.813 140.669 32.7224 140.669 32.541C140.669 32.3597 140.749 32.269 140.909 32.269C141.069 32.2584 141.239 32.2424 141.421 32.221C141.634 32.1997 141.805 32.1197 141.933 31.981C142.071 31.8317 142.141 31.533 142.141 31.085V22.461C142.141 22.2904 142.109 22.125 142.045 21.965C141.991 21.805 141.858 21.725 141.645 21.725C141.517 21.725 141.389 21.7304 141.261 21.741C141.133 21.741 141.005 21.741 140.877 21.741C140.61 21.741 140.477 21.613 140.477 21.357C140.477 21.229 140.519 21.149 140.605 21.117C140.69 21.0744 140.786 21.053 140.893 21.053C141.202 21.053 141.506 21.0637 141.805 21.085C142.103 21.0957 142.402 21.101 142.701 21.101C143.703 21.101 144.706 21.0957 145.709 21.085C146.711 21.0637 147.714 21.053 148.717 21.053C148.909 21.053 149.101 21.0477 149.293 21.037C149.485 21.0157 149.677 20.9944 149.869 20.973C149.89 21.1437 149.911 21.3144 149.933 21.485C149.965 21.6557 149.991 21.8264 150.013 21.997C150.045 22.1997 150.087 22.413 150.141 22.637C150.205 22.861 150.237 23.0797 150.237 23.293C150.237 23.421 150.183 23.5277 150.077 23.613C149.97 23.6877 149.858 23.725 149.741 23.725C149.485 23.725 149.314 23.613 149.229 23.389C149.069 22.8877 148.829 22.4717 148.509 22.141C148.199 21.7997 147.762 21.629 147.197 21.629H144.317V26.333C144.722 26.333 145.117 26.3277 145.501 26.317C145.895 26.3064 146.29 26.285 146.685 26.253C147.079 26.221 147.458 26.157 147.821 26.061C147.97 26.029 148.125 25.9864 148.285 25.933C148.455 25.8797 148.615 25.853 148.765 25.853C148.893 25.853 148.957 25.9117 148.957 26.029C148.957 26.1037 148.935 26.2157 148.893 26.365C148.861 26.5144 148.834 26.6264 148.813 26.701C148.759 26.8397 148.706 26.925 148.653 26.957C148.599 26.9784 148.503 26.989 148.365 26.989C148.109 26.989 147.858 26.973 147.613 26.941C147.207 26.8984 146.797 26.8717 146.381 26.861C145.965 26.8397 145.549 26.829 145.133 26.829C144.898 26.829 144.701 26.893 144.541 27.021C144.391 27.1384 144.317 27.325 144.317 27.581V31.517C144.317 31.773 144.349 31.9544 144.413 32.061C144.487 32.1677 144.658 32.221 144.925 32.221C145.213 32.221 145.533 32.221 145.885 32.221C146.237 32.221 146.594 32.205 146.957 32.173C147.33 32.141 147.677 32.0717 147.997 31.965C148.317 31.8584 148.583 31.6984 148.797 31.485C148.978 31.3037 149.154 31.0637 149.325 30.765C149.495 30.4664 149.634 30.1997 149.741 29.965C149.794 29.837 149.847 29.7517 149.901 29.709C149.954 29.6557 150.05 29.629 150.189 29.629C150.317 29.629 150.402 29.661 150.445 29.725C150.487 29.789 150.509 29.8797 150.509 29.997ZM158.314 23.949C158.314 23.1597 158.138 22.5517 157.786 22.125C157.445 21.6984 156.863 21.485 156.042 21.485H155.754C155.669 21.485 155.578 21.485 155.482 21.485C155.386 21.485 155.295 21.4957 155.21 21.517C155.103 21.549 155.034 21.597 155.002 21.661C154.97 21.725 154.954 21.8157 154.954 21.933C154.954 22.5517 154.949 23.1704 154.938 23.789C154.938 24.397 154.938 25.0157 154.938 25.645V26.301C155.013 26.3117 155.087 26.3224 155.162 26.333C155.237 26.333 155.311 26.333 155.386 26.333C155.941 26.333 156.437 26.269 156.874 26.141C157.322 26.0024 157.674 25.7624 157.93 25.421C158.186 25.069 158.314 24.5784 158.314 23.949ZM162.378 32.525C162.378 32.621 162.287 32.6957 162.106 32.749C161.935 32.7917 161.727 32.8184 161.482 32.829C161.247 32.8504 161.023 32.861 160.81 32.861C160.597 32.8717 160.453 32.877 160.378 32.877C159.973 32.877 159.605 32.8344 159.274 32.749C158.954 32.6637 158.682 32.4237 158.458 32.029C157.967 31.1757 157.487 30.3117 157.018 29.437C156.549 28.5517 156.079 27.6717 155.61 26.797L154.938 26.781C154.938 27.6237 154.938 28.4717 154.938 29.325C154.949 30.1677 154.954 31.0157 154.954 31.869C154.954 31.965 154.981 32.061 155.034 32.157C155.087 32.2424 155.167 32.285 155.274 32.285C155.402 32.285 155.53 32.2797 155.658 32.269C155.786 32.2584 155.914 32.253 156.042 32.253C156.095 32.253 156.143 32.2904 156.186 32.365C156.239 32.429 156.266 32.4877 156.266 32.541C156.266 32.6157 156.245 32.6797 156.202 32.733C156.17 32.7864 156.117 32.813 156.042 32.813C155.946 32.813 155.855 32.8077 155.77 32.797C155.685 32.7864 155.599 32.781 155.514 32.781C155.322 32.7597 155.13 32.749 154.938 32.749C154.746 32.749 154.554 32.749 154.362 32.749C153.903 32.749 153.439 32.7597 152.97 32.781C152.511 32.8024 152.047 32.813 151.578 32.813C151.397 32.813 151.306 32.717 151.306 32.525C151.306 32.4504 151.338 32.3917 151.402 32.349C151.466 32.2957 151.535 32.269 151.61 32.269C151.717 32.269 151.823 32.2744 151.93 32.285C152.037 32.2957 152.143 32.301 152.25 32.301C152.399 32.301 152.527 32.2744 152.634 32.221C152.741 32.1677 152.794 32.0557 152.794 31.885V21.997C152.794 21.837 152.762 21.7304 152.698 21.677C152.634 21.613 152.527 21.581 152.378 21.581C152.271 21.581 152.165 21.5864 152.058 21.597C151.951 21.6077 151.845 21.613 151.738 21.613C151.663 21.613 151.583 21.5864 151.498 21.533C151.423 21.4797 151.386 21.4104 151.386 21.325C151.386 21.1224 151.503 21.021 151.738 21.021C151.845 21.021 151.951 21.0264 152.058 21.037C152.165 21.037 152.271 21.0424 152.378 21.053C152.591 21.0637 152.81 21.0744 153.034 21.085C153.258 21.085 153.477 21.085 153.69 21.085C154.202 21.085 154.709 21.069 155.21 21.037C155.722 20.9944 156.229 20.973 156.73 20.973C157.167 20.973 157.615 21.0157 158.074 21.101C158.533 21.1757 158.959 21.3144 159.354 21.517C159.759 21.7197 160.085 21.997 160.33 22.349C160.575 22.6904 160.698 23.1277 160.698 23.661C160.698 24.3117 160.565 24.8344 160.298 25.229C160.042 25.6237 159.685 25.9277 159.226 26.141C158.778 26.3544 158.266 26.5197 157.69 26.637C158.159 27.4904 158.666 28.3277 159.21 29.149C159.754 29.9704 160.303 30.781 160.858 31.581C161.007 31.7837 161.199 31.965 161.434 32.125C161.669 32.2744 161.909 32.349 162.154 32.349C162.229 32.349 162.282 32.3597 162.314 32.381C162.357 32.3917 162.378 32.4397 162.378 32.525ZM171.226 29.805C171.226 30.4237 171.088 30.941 170.81 31.357C170.533 31.7624 170.165 32.0824 169.706 32.317C169.258 32.5517 168.768 32.717 168.234 32.813C167.701 32.909 167.178 32.957 166.666 32.957C166.272 32.957 165.893 32.8984 165.53 32.781C165.168 32.6744 164.8 32.5517 164.426 32.413C164.245 32.349 164.064 32.3117 163.882 32.301C163.712 32.2797 163.53 32.269 163.338 32.269C163.306 32.013 163.274 31.7624 163.242 31.517C163.21 31.261 163.173 31.005 163.13 30.749C163.109 30.5677 163.082 30.3917 163.05 30.221C163.018 30.0504 163.002 29.8797 163.002 29.709C163.002 29.5597 163.029 29.437 163.082 29.341C163.146 29.245 163.258 29.197 163.418 29.197C163.568 29.197 163.68 29.229 163.754 29.293C163.84 29.3464 163.904 29.4424 163.946 29.581C164.021 29.773 164.08 29.9704 164.122 30.173C164.176 30.3757 164.24 30.5784 164.314 30.781C164.496 31.2824 164.789 31.6824 165.194 31.981C165.61 32.2797 166.096 32.429 166.65 32.429C167.397 32.429 167.968 32.2157 168.362 31.789C168.768 31.3517 168.97 30.765 168.97 30.029C168.97 29.6024 168.88 29.2504 168.698 28.973C168.517 28.685 168.282 28.4397 167.994 28.237C167.706 28.0344 167.397 27.8424 167.066 27.661C166.757 27.4904 166.442 27.3304 166.122 27.181C165.802 27.0317 165.488 26.877 165.178 26.717C164.837 26.5357 164.501 26.3117 164.17 26.045C163.85 25.7677 163.584 25.453 163.37 25.101C163.168 24.7384 163.066 24.349 163.066 23.933C163.066 23.229 163.248 22.6477 163.61 22.189C163.984 21.7304 164.458 21.389 165.034 21.165C165.621 20.941 166.229 20.829 166.858 20.829C167.264 20.829 167.653 20.8877 168.026 21.005C168.41 21.1117 168.784 21.2397 169.146 21.389C169.264 21.4317 169.37 21.4637 169.466 21.485C169.573 21.5064 169.685 21.517 169.802 21.517C169.888 21.517 169.968 21.517 170.042 21.517C170.117 21.5064 170.192 21.4957 170.266 21.485C170.298 21.8264 170.336 22.1677 170.378 22.509C170.421 22.8504 170.464 23.1917 170.506 23.533C170.517 23.5864 170.522 23.645 170.522 23.709C170.533 23.7624 170.538 23.8157 170.538 23.869C170.538 24.0184 170.506 24.157 170.442 24.285C170.378 24.4024 170.256 24.461 170.074 24.461C169.936 24.461 169.834 24.429 169.77 24.365C169.706 24.301 169.648 24.2104 169.594 24.093C169.466 23.7624 169.344 23.437 169.226 23.117C169.109 22.797 168.938 22.4984 168.714 22.221C168.48 21.9224 168.186 21.7037 167.834 21.565C167.482 21.4157 167.12 21.341 166.746 21.341C166.384 21.341 166.08 21.4424 165.834 21.645C165.589 21.837 165.408 22.0877 165.29 22.397C165.173 22.7064 165.114 23.0264 165.114 23.357C165.114 23.869 165.248 24.269 165.514 24.557C165.792 24.8344 166.133 25.0904 166.538 25.325C166.762 25.4424 166.986 25.5597 167.21 25.677C167.445 25.7837 167.674 25.8904 167.898 25.997C168.432 26.2424 168.949 26.541 169.45 26.893C169.962 27.2344 170.384 27.645 170.714 28.125C171.056 28.5944 171.226 29.1544 171.226 29.805Z" fill="white"/>
</g>
<rect x="0.484375" y="13.749" width="6" height="15" fill="white"/>
<path d="M40.654 11.7826L43.6246 7.17904L54.9844 16.7489L47.7606 16.7587L40.654 11.7826Z" fill="white"/>
<path d="M43.5167 7.37281L47.7135 11.9912L41.0764 16.7418L34.9456 16.7568L43.5167 7.37281Z" fill="white"/>
<path d="M18.3786 1.13915L21.9459 5.32486L3.92587 18.5837L0.484408 13.6688L18.3786 1.13915Z" fill="white"/>
<path d="M15.873 5.9359L18.4844 1.24886L40.9844 16.7488L31.4844 16.7488L15.873 5.9359Z" fill="white"/>
<rect x="6.48438" y="28.749" width="6" height="9" transform="rotate(-90 6.48438 28.749)" fill="white"/>
<defs>
<filter id="filter0_i_0_1134" x="21.3804" y="20.6851" width="149.846" height="16.272" filterUnits="userSpaceOnUse" color-interpolation-filters="sRGB">
<feFlood flood-opacity="0" result="BackgroundImageFix"/>
<feBlend mode="normal" in="SourceGraphic" in2="BackgroundImageFix" result="shape"/>
<feColorMatrix in="SourceAlpha" type="matrix" values="0 0 0 0 0 0 0 0 0 0 0 0 0 0 0 0 0 0 127 0" result="hardAlpha"/>
<feOffset dy="4"/>
<feGaussianBlur stdDeviation="2"/>
<feComposite in2="hardAlpha" operator="arithmetic" k2="-1" k3="1"/>
<feColorMatrix type="matrix" values="0 0 0 0 0 0 0 0 0 0 0 0 0 0 0 0 0 0 0.25 0"/>
<feBlend mode="normal" in2="shape" result="effect1_innerShadow_0_1134"/>
</filter>
</defs>
</svg>
